{"title":"Mel Blanc - The Man of a Thousand Voices.avi","uid":10078799,"size":796424192,"categoryP":"video","categoryS":"movies","magnet":"?xt=urn:btih:d8a8d77ddcb70121cd8f20b22a7b8cfc493f28e3&amp;dn=Mel+Blanc+-+The+Man+of+a+Thousand+Voices.avi&amp;tr=udp%3A%2F%2Ftracker.openbittorrent.com%3A80&amp;tr=udp%3A%2F%2Fopen.demonii.com%3A1337&amp;tr=udp%3A%2F%2Ftracker.coppersurfer.tk%3A6969&amp;tr=udp%3A%2F%2Fexodus.desync.com%3A6969","seeders":0,"leechers":1,"uploader":"HDD_Lover","files":1,"time":1398962416,"description":"A movie about Mel Blanc, who did literally hundreds of voices for cartoons. I decided to upload this as it seems that it cannot be found online currently. I will seed as long as there is demand ;) If it is not downloading for you, please leave me a message and I will resume seeding. \n\nTechnical aspects: \n\nFormat : AVI\nFormat/Info : Audio Video Interleave\nFile size : 760 MiB\nDuration : 1h 9mn\nOverall bit rate : 1 528 Kbps\nWriting application : VirtualDubMod 1.5.4.1 (build 2178/release)\nWriting library : VirtualDubMod build 2178/release\n\nVideo\nID : 0\nFormat : MPEG-4 Visual\nFormat profile : Advanced Simple@L5\nFormat settings, BVOP : 1\nFormat settings, QPel : No\nFormat settings, GMC : No warppoints\nFormat settings, Matrix : Default (MPEG)\nCodec ID : XVID\nCodec ID/Hint : XviD\nDuration : 1h 9mn\nBit rate : 1 327 Kbps\nWidth : 624 pixels\nHeight : 448 pixels\nDisplay aspect ratio : 1.393\nFrame rate : 23.976 fps\nColor space : YUV\nChroma subsampling : 4:2:0\nBit depth : 8 bits\nScan type : Progressive\nCompression mode : Lossy\nBits/(Pixel*Frame) : 0.198\nStream size : 659 MiB (87%)\nWriting library : XviD 1.2.0.dev47 (UTC 2006-11-01)\n\nAudio\nID : 1\nFormat : AC-3\nFormat/Info : Audio Coding 3\nMode extension : CM (complete main)\nCodec ID : 2000\nDuration : 1h 9mn\nBit rate mode : Constant\nBit rate : 192 Kbps\nChannel(s) : 2 channels\nChannel positions : Front: L R\nSampling rate : 48.0 KHz\nBit depth : 16 bits\nCompression mode : Lossy\nDelay relative to video : 34ms\nStream size : 95.4 MiB (13%)\nAlignment : Split accross interleaves\nInterleave, duration : 42 ms (1.00 video frame)\nInterleave, preload duration : 500 ms","torrent":{"xt":"urn:btih:d8a8d77ddcb70121cd8f20b22a7b8cfc493f28e3","amp;dn":"Mel+Blanc+-+The+Man+of+a+Thousand+Voices.avi","amp;tr":["udp%3A%2F%2Ftracker.openbittorrent.com%3A80","udp%3A%2F%2Fopen.demonii.com%3A1337","udp%3A%2F%2Ftracker.coppersurfer.tk%3A6969","udp%3A%2F%2Fexodus.desync.com%3A6969"],"infoHash":"d8a8d77ddcb70121cd8f20b22a7b8cfc493f28e3","infoHashBuffer":{"type":"Buffer","data":[216,168,215,125,220,183,1,33,205,143,32,178,42,123,140,252,73,63,40,227]},"announce":[],"urlList":[]}}